<svg xmlns="http://www.w3.org/2000/svg" viewBox="0 0 800 800" role="img" aria-labelledby="title desc">
  <title id="title">Skyline German Academy Belagavi logo</title>
  <desc id="desc">Circular Skyline academy seal with Germany flag silhouette and supporting eagle marks.</desc>
  <defs>
    <path id="topArc" d="M 165 197 A 285 285 0 0 1 635 197" />
    <path id="bottomArc" d="M 642 603 A 295 295 0 0 1 158 603" />
    <clipPath id="germanyClip">
      <path d="M402 222c-26-14-57-18-80-5c-21 12-22 40-41 52c-18 10-45 1-59 18c-13 15-6 39-13 58c-7 20-29 31-34 53c-4 19 7 39 4 59c-3 21-20 37-20 58c0 22 18 40 23 61c5 23-6 51 9 68c15 16 44 11 63 22c19 11 29 38 51 43c23 5 46-15 70-14c24 1 46 24 68 15c22-9 28-40 48-53c18-12 47-7 60-26c13-18 1-46 7-67c7-22 31-36 34-60c4-23-15-44-15-67c0-22 20-43 15-66c-5-23-33-36-41-58c-8-22 2-50-13-68c-15-16-44-10-63-22c-20-12-30-39-53-51z" />
    </clipPath>
    <style>
      .ring { fill: #fbfbf8; stroke: #736f60; }
      .seal-text {
        fill: #736f60;
        font-family: "Montserrat", "Arial", sans-serif;
        font-size: 62px;
        font-weight: 700;
        letter-spacing: 12px;
        text-transform: uppercase;
      }
      .seal-text-small {
        fill: #736f60;
        font-family: "Montserrat", "Arial", sans-serif;
        font-size: 42px;
        font-weight: 700;
        letter-spacing: 8px;
        text-transform: uppercase;
      }
      .eagle {
        fill: none;
        stroke: #736f60;
        stroke-linecap: round;
        stroke-linejoin: round;
      }
    </style>
  </defs>

  <circle class="ring" cx="400" cy="400" r="382" stroke-width="8" />
  <circle class="ring" cx="400" cy="400" r="360" stroke-width="4" />
  <circle class="ring" cx="400" cy="400" r="232" stroke-width="8" />

  <text class="seal-text">
    <textPath href="#topArc" startOffset="50%" text-anchor="middle">SKYLINE</textPath>
  </text>
  <text class="seal-text-small">
    <textPath href="#bottomArc" startOffset="50%" text-anchor="middle">GERMAN ACADEMY BELAGAVI</textPath>
  </text>

  <g class="eagle" stroke-width="8">
    <g transform="translate(110 396)">
      <path d="M0 44c14-28 42-44 76-44 8 0 16 1 24 3-14 10-24 22-29 36 17 6 29 17 37 34-14-7-30-10-47-8v85c-9-10-17-23-22-37-6 14-14 27-23 37V65C5 68-4 72-12 79c4-16 14-28 30-35-7-14-17-26-31-36 4-1 8-2 13-2 34 0 62 16 76 44" />
      <path d="M60 40v132" />
      <path d="M38 95l22 20 22-20" />
      <path d="M28 62l10 18" />
      <path d="M92 62l-10 18" />
    </g>
    <g transform="translate(690 396) scale(-1 1)">
      <path d="M0 44c14-28 42-44 76-44 8 0 16 1 24 3-14 10-24 22-29 36 17 6 29 17 37 34-14-7-30-10-47-8v85c-9-10-17-23-22-37-6 14-14 27-23 37V65C5 68-4 72-12 79c4-16 14-28 30-35-7-14-17-26-31-36 4-1 8-2 13-2 34 0 62 16 76 44" />
      <path d="M60 40v132" />
      <path d="M38 95l22 20 22-20" />
      <path d="M28 62l10 18" />
      <path d="M92 62l-10 18" />
    </g>
  </g>

  <g clip-path="url(#germanyClip)">
    <rect x="190" y="190" width="420" height="170" fill="#111111" transform="rotate(-18 400 400)" />
    <rect x="190" y="315" width="420" height="165" fill="#d71818" transform="rotate(-18 400 400)" />
    <rect x="190" y="470" width="420" height="165" fill="#f6c400" transform="rotate(-18 400 400)" />
  </g>

  <path d="M402 222c-26-14-57-18-80-5c-21 12-22 40-41 52c-18 10-45 1-59 18c-13 15-6 39-13 58c-7 20-29 31-34 53c-4 19 7 39 4 59c-3 21-20 37-20 58c0 22 18 40 23 61c5 23-6 51 9 68c15 16 44 11 63 22c19 11 29 38 51 43c23 5 46-15 70-14c24 1 46 24 68 15c22-9 28-40 48-53c18-12 47-7 60-26c13-18 1-46 7-67c7-22 31-36 34-60c4-23-15-44-15-67c0-22 20-43 15-66c-5-23-33-36-41-58c-8-22 2-50-13-68c-15-16-44-10-63-22c-20-12-30-39-53-51z" fill="none" stroke="#ffffff" stroke-width="6" />
</svg>
